PathFileType	4	(X/Y/Z)	C:/Users/beibeiliu/ov580/test_trc\sequence.14_training_dense_left.trc
DataRate	CameraRate	NumFrames	NumMarkers	Units	OrigDataRate	OrigDataStartFrame	OrigNumFrames
120	120	22	19	mm	120	1	73
Frame#	Time	ThumbCMC			ThumbMCP			ThumbIP			ThumbTip			IndexMCP			IndexPIP			IndexTip			MiddleMCP			MiddlePIP			MiddleTip			RingMCP			RingPIP			RingTip			PinkyMCP			PinkyPIP			PinkyTip			BackHand1			BackHand2			BackHand3	
		X0	Y0	Z0	X1	Y1	Z1	X2	Y2	Z2	X3	Y3	Z3	X4	Y4	Z4	X5	Y5	Z5	X6	Y6	Z6	X7	Y7	Z7	X8	Y8	Z8	X9	Y9	Z9	X10	Y10	Z10	X11	Y11	Z11	X12	Y12	Z12	X13	Y13	Z13	X14	Y14	Z14	X15	Y15	Z15	X16	Y16	Z16	X17	Y17	Z17	X18	Y18	Z18	
0	0	-135.163	46.8283	43.6261	-122.136	27.8057	25.2083	-113.812	15.8695	4.70462	-115.207	1.66843	-16.9864	-142.523	41.0276	-24.5351	-135.819	25.7961	-42.9727	-130.461	0.384291	-58.1774	-163.125	37.9185	-31.8046	-162.629	22.4826	-54.0436	-161.796	-1.75434	-68.4918	-180.748	33.485	-27.5186	-181.074	21.7905	-44.5712	-179.293	3.53544	-59.1364	-202.408	27.5325	-13.3513	-202.84	17.3051	-26.4926	-198.867	3.47184	-44.0762	-184.116	56.6674	13.421	-186.478	64.5631	43.509	-160.233	65.5494	27.333	
1	0.00833333	-137.45	46.1954	40.3034	-122.3	28.3144	22.7846	-119.972	16.8267	3.67565	-116.841	1.68869	-16.8083	-144.029	40.824	-26.9827	-138.377	23.0808	-47.3169	-133.901	-1.30946	-58.2534	-163.456	37.6446	-35.0477	-162.999	24.7955	-53.4346	-162.836	-2.25605	-68.6429	-186.334	34.1728	-26.4223	-181.008	21.3541	-45.3612	-178.761	-0.300301	-62.97	-200.762	29.4494	-10.5216	-204.013	13.6258	-30.9904	-202.821	2.97876	-43.9199	-187.46	56.0543	16.4415	-186.184	65.381	39.9238	-160.06	64.7415	24.9194	
2	0.0166667	-137.865	45.5768	42.2639	-124.15	28.4486	25.4449	-117.126	14.6292	0.732597	-117.486	3.38123	-12.679	-138.935	38.8554	-29.4293	-139.107	23.8818	-45.3585	-130.616	1.95078	-56.0611	-166.275	38.6859	-32.0183	-163.43	23.1843	-53.8219	-160.252	-0.670764	-67.8813	-181.595	35.3444	-24.5648	-181.122	17.6119	-48.2605	-179.971	-0.734725	-61.4671	-202.743	28.8605	-11.8322	-204.466	13.8405	-28.6742	-200.491	0.608134	-41.9504	-188.284	56.1588	15.8537	-185.475	63.3483	40.1394	-161.977	64.3795	27.7483	
3	0.025	-134.339	44.6325	37.9959	-124.896	27.1041	22.6876	-118.645	14.5923	2.92905	-116.117	2.22227	-11.4144	-141.751	37.7666	-28.7274	-134.705	20.7576	-47.2355	-136.343	1.25078	-55.3	-163.89	38.4268	-30.4637	-163.548	20.5174	-54.8737	-162.888	-3.2162	-67.2891	-181.385	33.8201	-26.8692	-182.492	17.5093	-47.0139	-179.04	2.79692	-58.5159	-198.218	29.1177	-10.5997	-200.98	15.5837	-29.5591	-201.73	0.801889	-43.1303	-186.003	54.187	13.4838	-188.983	62.466	38.9786	-160.083	63.7406	24.9946	
4	0.0333333	-138.923	44.2562	41.6644	-123.597	26.3284	21.1191	-115.619	13.9635	4.3502	-114.229	0.52755	-13.6267	-139.303	39.6262	-25.8245	-136.675	24.2909	-44.4391	-131.577	1.69998	-55.8585	-161.718	37.0614	-36.0029	-160.688	18.3584	-55.7486	-160.911	-1.57404	-67.2837	-186.043	31.9674	-25.2816	-181.423	16.5951	-48.1752	-180.372	-2.56226	-59.9679	-203.569	26.1017	-11.8099	-199.888	15.8011	-28.0394	-201.694	-0.305158	-42.844	-187.008	55.4494	13.9016	-183.262	63.2893	37.8611	-160.71	62.2461	25.1773	
5	0.0416667	-138.221	43.6625	37.9021	-124.413	26.8093	22.3965	-118.121	14.0975	1.34577	-113.761	-0.0523506	-14.0207	-138.54	39.4551	-24.3028	-139.052	20.1636	-46.2974	-132.142	1.33363	-55.4544	-165.538	35.2189	-34.2432	-161.656	20.2271	-54.1587	-163.637	-3.86166	-66.7861	-186.287	31.6878	-25.2747	-183.907	15.6027	-47.4527	-181.807	-0.481773	-58.325	-201.598	27.5737	-12.1046	-200.474	16.7596	-26.5821	-201.251	-1.38143	-40.4569	-183.913	55.8568	17.6113	-185.783	62.2508	39.9899	-157.603	62.5147	26.8191	
6	0.05	-135.645	44.1647	38.0837	-122.082	26.0138	21.3629	-119.002	13.8255	5.76053	-115.419	1.62831	-12.7772	-142.127	37.4388	-29.2828	-135.812	24.4125	-43.9206	-134.239	2.5213	-56.854	-166.225	34.9507	-34.9229	-161.467	22.3993	-52.8642	-161.271	-3.35925	-69.8584	-181.397	33.5106	-23.7187	-182.681	18.3143	-45.6567	-177.41	-0.833195	-62.4593	-203.399	26.4516	-11.9491	-202.1	12.2789	-30.4167	-200.848	-1.52605	-42.7767	-182.594	53.8378	18.1296	-187.387	62.354	41.2629	-161.124	64.0747	27.3715	
7	0.0583333	-136.397	46.7563	41.5761	-123.064	27.9403	22.9924	-115.419	15.7704	0.0839592	-112.734	2.60168	-15.5328	-141.432	42.4996	-29.5188	-134.756	26.0271	-49.0791	-134.48	8.85095	-60.9619	-164.847	38.8652	-35.9042	-162.9	26.447	-55.2509	-157.834	1.85298	-74.9107	-181.597	35.9066	-26.234	-185.355	20.9491	-47.6102	-181.05	5.83705	-62.4794	-203.375	28.188	-15.812	-201.582	17.8718	-29.7411	-200.05	0.344552	-47.1778	-188.469	54.5913	16.9273	-187.809	62.6573	38.5841	-158.983	66.7081	25.6621	
8	0.0666667	-136.708	48.1356	37.9281	-124.167	30.2504	18.5664	-120.702	19.3113	-0.235394	-120.571	5.24287	-21.3492	-140.964	50.4266	-27.8571	-134.799	36.3619	-52.2946	-126.821	18.5007	-67.752	-164.182	47.6623	-33.7683	-165.05	34.6769	-60.4252	-160.992	18.4697	-79.5001	-183.455	41.2972	-28.921	-185.071	30.4841	-49.7459	-178.488	16.9885	-69.2907	-202.823	33.6873	-12.6698	-201.929	24.8956	-30.9388	-203.331	11.1828	-49.9429	-185.502	57.0209	14.7731	-188.852	64.0089	41.1722	-160.907	67.209	26.7999	
9	0.075	-138.04	50.6535	39.6453	-119.942	31.2463	17.988	-118.196	20.0345	-1.09577	-129.003	7.85556	-18.7709	-136.253	56.6899	-27.766	-133.467	48.9113	-48.2991	-125.507	35.7099	-69.1536	-159.813	55.1312	-36.0427	-158.14	48.5753	-59.2266	-157.85	36.6868	-81.7484	-178.007	49.5499	-30.7168	-184.161	42.1587	-49.514	-179.582	32.6651	-70.9868	-196.343	40.3389	-14.0904	-201.795	30.8891	-34.6165	-202.489	23.5036	-52.0216	-186.572	60.9937	14.599	-187.232	67.4734	36.6399	-158.728	71.2371	28.1213	
10	0.0833333	-134.755	52.0323	38.6547	-121.647	32.4902	17.726	-125.241	20.3383	-4.35411	-140.603	8.55469	-22.2034	-134.573	59.3821	-27.3587	-125.747	54.3994	-46.4589	-119.606	44.9225	-70.0698	-157.255	58.7992	-36.8358	-154.676	54.8426	-56.8249	-157.143	48.0976	-81.7667	-180.577	50.6746	-28.5747	-179.823	47.9308	-49.5194	-176.208	44.3039	-73.0045	-193.733	42.7212	-15.2741	-198.862	36.9225	-35.0846	-201.476	32.1293	-52.5094	-184.449	62.515	14.6256	-185.181	67.457	35.599	-159.378	73.12	27.4084	
11	0.0916667	-137.853	50.9639	41.6242	-119.61	31.2656	17.117	-127.82	20.7966	-5.64752	-150.174	14.0815	-16.9764	-130.262	61.7348	-26.0551	-121.982	57.3389	-46.9062	-116.824	52.5915	-65.1013	-154.297	59.9171	-33.2448	-153.129	57.4652	-57.699	-151.428	55.2351	-83.9351	-175.711	51.8476	-26.7686	-172.373	50.5807	-48.31	-174.193	49.5042	-68.5673	-189.729	44.1982	-21.0266	-192.099	39.8354	-33.7259	-199.572	37.6718	-54.4308	-182.569	64.0065	12.2619	-187.215	68.22	36.6589	-154.963	72.0963	26.906	
12	0.1	-135.707	50.7053	37.7104	-124.665	30.7223	16.5281	-131.78	18.8093	-6.54027	-156.428	13.5114	-17.8756	-126.663	60.6698	-26.3736	-118.372	57.4634	-44.7767	-114.213	54.1373	-63.0425	-148.163	58.4791	-34.7082	-147.558	55.7059	-58.1945	-147.782	55.5524	-78.9024	-172.49	51.0699	-28.8311	-165.176	50.784	-50.9937	-166.241	50.5833	-69.513	-188.44	42.6583	-16.8316	-187.823	40.2762	-33.5811	-190.025	42.0787	-56.3348	-175.052	61.4395	11.4641	-182.705	67.184	38.7823	-155.113	70.5552	28.9351	
13	0.108333	-133.79	44.9379	42.4332	-122.007	25.32	13.9268	-135.229	17.0217	-8.23656	-161.882	12.4353	-14.8135	-131.008	55.3992	-23.3779	-122.723	53.3868	-42.1916	-115.871	51.4079	-66.5072	-147.458	53.0951	-36.1015	-142.945	50.1932	-56.2595	-141.87	50.3653	-76.6233	-166.896	47.2418	-29.9842	-163.935	45.0866	-46.9698	-160.625	45.6208	-67.1192	-182.442	40.4016	-20.4391	-184.109	36.2892	-38.6643	-182.661	39.1872	-55.1789	-174.924	56.7583	11.77	-181.342	64.9131	36.2645	-154.749	69.2318	30.8187	
14	0.116667	-132.738	41.656	42.5068	-122.526	21.1866	17.059	-135.924	12.1493	-5.73649	-162.387	10.0074	-12.0539	-131.081	49.7481	-25.7119	-124.477	47.111	-43.2231	-116.83	46.2807	-64.7316	-147.034	46.8047	-31.8955	-142.203	43.628	-53.5037	-142.241	43.7853	-80.8567	-167.278	41.0997	-28.3143	-164.377	38.8623	-48.5565	-160.153	38.26	-65.6938	-187.431	33.4922	-19.9602	-185.909	31.2207	-32.8924	-186.22	34.0096	-55.7519	-180.465	52.7109	14.1984	-180.823	58.073	36.6476	-155.997	63.3647	28.1646	
15	0.125	-134.545	38.5903	41.6562	-126.841	19.7908	14.5966	-141.657	12.1018	-9.2673	-164.464	6.6797	-12.712	-130.704	48.4342	-23.8061	-122.032	46.1467	-42.9138	-119.215	46.0368	-67.7611	-152.415	45.4121	-31.7038	-143.398	43.0675	-56.2246	-143.537	43.7624	-77.0315	-171.916	39.953	-26.7298	-166.937	37.3478	-46.5934	-166.502	37.2216	-66.9837	-191.649	31.9782	-18.1714	-188.16	29.5357	-33.5581	-189.195	32.5313	-53.3517	-178.666	50.8184	12.4606	-182.416	57.6818	37.8015	-154.472	63.1681	26	
16	0.133333	-135.177	39.592	41.364	-128.926	20.4311	9.88498	-143.442	13.5282	-8.00736	-171.477	11.5351	-14.2208	-134.366	50.2065	-23.6076	-127.403	46.5891	-47.8644	-121.18	47.4245	-66.6479	-157.261	47.222	-31.6238	-152.384	45.7426	-56.2907	-150.151	46.7241	-78.3716	-172.301	42.516	-28.4729	-174.27	41.1332	-49.9454	-172.914	42.6079	-71.4864	-194.367	34.2942	-19.0114	-194.828	31.7661	-32.9557	-197.387	33.0293	-51.2159	-181.808	54.2182	16.4418	-182.161	61.1683	36.2318	-157.219	63.9346	24.6903	
17	0.141667	-135.297	44.0595	38.0312	-130	23.487	13.578	-144.292	14.895	-6.9716	-171.573	10.3785	-14.5773	-134.822	52.6557	-24.2438	-130.691	47.1831	-49.2735	-124.089	45.8559	-67.6271	-159.471	49.0044	-36.8568	-154.991	46.2141	-56.2177	-156.481	44.841	-84.2637	-179.926	42.9299	-29.4001	-179.917	40.3049	-47.3416	-174.741	39.6297	-69.8236	-196.321	35.5059	-15.5072	-201.328	30.1332	-34.2525	-203.31	29.6778	-48.3609	-182.452	56.9761	13.3467	-186.795	62.615	35.4213	-161.775	66.485	25.1532	
18	0.15	-140.191	53.8284	37.4747	-132.185	32.6832	17.2541	-145.385	17.0542	-5.88247	-168.763	10.6392	-6.34862	-141.579	50.1441	-23.7567	-133.173	43.6779	-45.3483	-128.712	36.948	-66.1235	-163.192	41.3865	-32.526	-160.521	31.5992	-57.1835	-159.544	26.7717	-75.2776	-182.22	31.7668	-24.6043	-182.519	23.0794	-45.8946	-179.01	18.8191	-67.5897	-197.529	22.0931	-11.3152	-197.186	13.6801	-29.8949	-199.104	10.08	-43.7057	-187.976	52.4277	15.2873	-195.545	62.0554	36.879	-170.761	65.8513	24.8028	
19	0.158333	-160.555	69.5213	35.5498	-138.031	51.6561	16.4539	-143.473	30.4773	1.18151	-160.054	8.96119	-1.44594	-151.889	51.3513	-28.9899	-140.328	46.5247	-41.2516	-127.569	37.4829	-60.3322	-164.542	31.0927	-32.3127	-152.71	23.7716	-48.0203	-147.849	10.2875	-65.8153	-177.587	14.0946	-21.7265	-169.614	6.7362	-34.1636	-162.744	-3.22828	-54.315	-190.31	5.22905	-2.03676	-184.672	-6.27677	-14.5241	-182.08	-17.4645	-28.9328	-199.252	42.278	10.8592	-208.384	52.7937	36.0338	-187.834	70.1486	19.7047	
20	0.166667	-185.669	75.5985	33.4196	-155.735	66.1637	13.1814	-149.057	42.5254	1.43199	-154.151	15.8596	4.86659	-165.848	54.7331	-25.434	-146.799	50.0104	-42.7398	-129.865	46.9298	-58.413	-167.228	27.6111	-24.8776	-150.784	24.5652	-41.6581	-135.246	11.326	-58.3524	-171.725	10.7038	-11.77	-156.941	-1.01347	-27.7171	-144.973	-5.62708	-40.3017	-178.062	-1.2028	6.90683	-166.915	-12.3374	-1.36003	-159.158	-22.7514	-14.221	-203.046	30.3852	14.7457	-217.401	38.713	31.9604	-206.893	56.4183	13.5606	
21	0.175	-203.937	75.9464	28.2949	-174.904	78.6246	17.2974	-156.94	58.6576	5.71411	-151.246	36.7348	10.4138	-172.835	60.1104	-25.2675	-156.772	64.7355	-38.7103	-139.673	66.4725	-52.6772	-165.291	36.4067	-25.3393	-146.196	31.9676	-37.3865	-128.691	28.1156	-50.6234	-165.897	17.0539	-5.84416	-145.95	11.2185	-20.1113	-130.527	6.55353	-29.8388	-164.981	3.63285	12.0223	-149.686	-4.10352	5.7904	-139.331	-12.9215	0.566679	-202.825	24.9846	16.2314	-222.154	27.9139	36.5282	-216.839	48.9418	15.7242	
